<?xml version="1.0" encoding="UTF-8" standalone="no"?>
<svg
   version="1.1"
   viewBox="-5 -10 93.75 87.500237"
   id="svg2"
   sodipodi:docname="noun-email-6853747.svg"
   width="93.75"
   height="87.500237"
   inkscape:version="1.4.2 (ebf0e940d0, 2025-05-08)"
   xmlns:inkscape="http://www.inkscape.org/namespaces/inkscape"
   xmlns:sodipodi="http://sodipodi.sourceforge.net/DTD/sodipodi-0.dtd"
   xmlns="http://www.w3.org/2000/svg"
   xmlns:svg="http://www.w3.org/2000/svg">
  <defs
     id="defs2" />
  <sodipodi:namedview
     id="namedview2"
     pagecolor="#ffffff"
     bordercolor="#000000"
     borderopacity="0.25"
     inkscape:showpageshadow="2"
     inkscape:pageopacity="0.0"
     inkscape:pagecheckerboard="0"
     inkscape:deskcolor="#d1d1d1"
     inkscape:zoom="5.9259259"
     inkscape:cx="46.828125"
     inkscape:cy="51.3"
     inkscape:window-width="1920"
     inkscape:window-height="1011"
     inkscape:window-x="0"
     inkscape:window-y="0"
     inkscape:window-maximized="1"
     inkscape:current-layer="svg2" />
  <path
     d="m 82.50027,21.6447 v -3.5195 c 0,-0.82812 -0.32812,-1.625 -0.91406,-2.2109 -0.58594,-0.58594 -1.3828,-0.91406 -2.2109,-0.91406 h -9.375 c 0,-2.1484 -0.24219,-4.2422 -0.69531,-6.25 h 10.07 c 2.4883,0 4.8711,0.98828 6.6289,2.7461 1.7578,1.7578 2.7461,4.1406 2.7461,6.6289 v 50 c 0,2.4883 -0.98828,4.8711 -2.7461,6.6289 -1.7578,1.7578 -4.1406,2.7461 -6.6289,2.7461 h -75 c -2.4883,0 -4.8711,-0.98828 -6.6289,-2.7461 C -4.0117,72.99634 -5,70.61354 -5,68.12524 v -50 c 0,-2.4883 0.98828,-4.8711 2.7461,-6.6289 1.7578,-1.7578 4.1406,-2.7461 6.6289,-2.7461 h 10.07 c -0.45703,2.0078 -0.69531,4.1016 -0.69531,6.25 h -9.375 c -0.82812,0 -1.625,0.32812 -2.2109,0.91406 -0.58594,0.58594 -0.91406,1.3828 -0.91406,2.2109 v 3.5195 l 38.766,28.715 c 1.1055,0.82031 2.6172,0.82031 3.7188,0 z m -81.25,7.7773 V 67.25 l 22.027,-17.625 5.1953,3.8516 -22.219,17.773 h 71.242 l -22.219,-17.773 5.1953,-3.8516 22.023,17.621 V 29.422 l -35.043,25.961 c -3.3164,2.457 -7.8477,2.457 -11.16,0 L 1.24487,29.422 Z M 41.87527,-10 c -13.797,0 -25,11.203 -25,25 0,13.797 11.203,25 25,25 13.797,0 25,-11.203 25,-25 0,-13.797 -11.203,-25 -25,-25 z m 15.281,14.137 c 2.1836,3.0664 3.4688,6.8164 3.4688,10.863 0,10.348 -8.4023,18.75 -18.75,18.75 -4.0469,0 -7.7969,-1.2852 -10.863,-3.4688 z m -4.418,-4.418 -26.145,26.145 c -2.1836,-3.0664 -3.4688,-6.8164 -3.4688,-10.863 0,-10.348 8.4023,-18.75 18.75,-18.75 4.0469,0 7.7969,1.2852 10.863,3.4688 z"
     fill-rule="evenodd"
     id="path1" />
</svg>
