<?xml version="1.0" encoding="UTF-8" standalone="no"?>
<svg
   viewBox="0 0 22.007458 22"
   x="0px"
   y="0px"
   version="1.1"
   id="svg2"
   sodipodi:docname="inbox-icon.svg"
   width="22.007458"
   height="22"
   inkscape:version="1.4.2 (ebf0e940d0, 2025-05-08)"
   xmlns:inkscape="http://www.inkscape.org/namespaces/inkscape"
   xmlns:sodipodi="http://sodipodi.sourceforge.net/DTD/sodipodi-0.dtd"
   xmlns="http://www.w3.org/2000/svg"
   xmlns:svg="http://www.w3.org/2000/svg">
  <defs
     id="defs2" />
  <sodipodi:namedview
     id="namedview2"
     pagecolor="#ffffff"
     bordercolor="#000000"
     borderopacity="0.25"
     inkscape:showpageshadow="2"
     inkscape:pageopacity="0.0"
     inkscape:pagecheckerboard="0"
     inkscape:deskcolor="#d1d1d1"
     inkscape:zoom="26.666667"
     inkscape:cx="10.96875"
     inkscape:cy="13.9875"
     inkscape:window-width="1920"
     inkscape:window-height="1011"
     inkscape:window-x="0"
     inkscape:window-y="0"
     inkscape:window-maximized="1"
     inkscape:current-layer="svg2" />
  <path
     d="m 22.003729,12.84 -1.46,-8.66 a 5,5 0 0 0 -4.93,-4.18 h -9.22 a 5,5 0 0 0 -4.93,4.18 l -1.45999999,8.66 a 0.86,0.86 0 0 0 0,0.16 v 4 A 5,5 0 0 0 5.003729,22 h 12 a 5,5 0 0 0 5,-5 v -4 a 0.86,0.86 0 0 0 0,-0.16 z m -18.57,-8.33 a 3,3 0 0 1 2.96,-2.51 h 9.22 a 3,3 0 0 1 3,2.51 l 1.21,7.49 h -3.7 a 2.77,2.77 0 0 0 -2.51,1.55 0.81,0.81 0 0 1 -0.73,0.45 h -3.76 a 0.81,0.81 0 0 1 -0.73,-0.45 2.79,2.79 0 0 0 -2.51,-1.55 h -3.7 z m 13.57,15.49 h -12 a 3,3 0 0 1 -3,-3 v -3 h 3.88 a 0.81,0.81 0 0 1 0.73,0.45 2.77,2.77 0 0 0 2.51,1.55 h 3.76 a 2.79,2.79 0 0 0 2.51,-1.55 0.81,0.81 0 0 1 0.73,-0.45 h 3.88 v 3 a 3,3 0 0 1 -3,3 z"
     id="path1" />
</svg>
