<?xml version="1.0" encoding="UTF-8" standalone="no"?>
<svg
   version="1.1"
   viewBox="-5 -10 94.088577 94.122017"
   id="svg2"
   sodipodi:docname="noun-send-email-7474580.svg"
   width="94.088577"
   height="94.122017"
   inkscape:version="1.4.2 (ebf0e940d0, 2025-05-08)"
   xmlns:inkscape="http://www.inkscape.org/namespaces/inkscape"
   xmlns:sodipodi="http://sodipodi.sourceforge.net/DTD/sodipodi-0.dtd"
   xmlns="http://www.w3.org/2000/svg"
   xmlns:svg="http://www.w3.org/2000/svg">
  <defs
     id="defs2" />
  <sodipodi:namedview
     id="namedview2"
     pagecolor="#ffffff"
     bordercolor="#000000"
     borderopacity="0.25"
     inkscape:showpageshadow="2"
     inkscape:pageopacity="0.0"
     inkscape:pagecheckerboard="0"
     inkscape:deskcolor="#d1d1d1"
     inkscape:zoom="5.9259259"
     inkscape:cx="46.996875"
     inkscape:cy="54.50625"
     inkscape:window-width="1920"
     inkscape:window-height="1011"
     inkscape:window-x="0"
     inkscape:window-y="0"
     inkscape:window-maximized="1"
     inkscape:current-layer="svg2" />
  <path
     d="m 89.084715,-7.0067549 c 0.07031,-1.8047 -1.7148,-3.3047001 -3.4805,-2.9375 -0.26172,-0.015626 -88.3050005,29.2889999 -88.6170005,29.3479999 -2.3789,0.70312 -2.7266,4.2656 -0.47266,5.3789 l 37.5040005,20.293 20.293,37.504 c 0.55469,1.0352 1.6875,1.6328 2.8438,1.5312 1.168,-0.10156 2.1641,-0.89062 2.5352,-2.0039 0.23828,-1.1953 29.426,-87.8869999 29.398,-89.1129999 z m -13.793,6.65230004 -39.633,39.63299986 -30.3590005,-16.43 69.9960005,-23.20699986 z m -19.047,74.15199986 -16.43,-30.359 39.633,-39.6369999 -23.207,69.9959999 z"
     id="path1" />
</svg>
