<?xml version="1.0" encoding="UTF-8" standalone="no"?>
<svg
   viewBox="0 0 276 384"
   x="0px"
   y="0px"
   version="1.1"
   id="svg2"
   sodipodi:docname="noun-trash-3370078.svg"
   width="276"
   height="384"
   inkscape:version="1.4.2 (ebf0e940d0, 2025-05-08)"
   xmlns:inkscape="http://www.inkscape.org/namespaces/inkscape"
   xmlns:sodipodi="http://sodipodi.sourceforge.net/DTD/sodipodi-0.dtd"
   xmlns="http://www.w3.org/2000/svg"
   xmlns:svg="http://www.w3.org/2000/svg">
  <defs
     id="defs2" />
  <sodipodi:namedview
     id="namedview2"
     pagecolor="#ffffff"
     bordercolor="#000000"
     borderopacity="0.25"
     inkscape:showpageshadow="2"
     inkscape:pageopacity="0.0"
     inkscape:pagecheckerboard="0"
     inkscape:deskcolor="#d1d1d1"
     inkscape:zoom="1.25"
     inkscape:cx="137.2"
     inkscape:cy="256"
     inkscape:window-width="1920"
     inkscape:window-height="1011"
     inkscape:window-x="0"
     inkscape:window-y="0"
     inkscape:window-maximized="1"
     inkscape:current-layer="svg2" />
  <path
     d="m 15.1,64 23.6,290.7 c 0,16.2 13.1,29.3 29.3,29.3 h 141 c 16.2,0 29.3,-13.1 29.3,-29.3 L 261.6,64 Z M 76.7,329 70,96 h 18.5 l 6.9,233 z m 70.3,0 H 129 V 96 h 18 z m 52.3,0 H 180.7 L 187.5,96 H 206 Z M 246,28 H 210 L 183.7,5 C 180,1.8 175.3,0 170.5,0 H 105.7 C 100.8,0 96,1.8 92.3,5 L 66,28 H 30 C 12.4,28 0,36.4 0,54 H 276 C 276,36.4 263.6,28 246,28 Z"
     id="path1" />
</svg>
