<?xml version="1.0" encoding="UTF-8" standalone="no"?>
<svg
   data-name="Layer 1"
   viewBox="0 0 481 324"
   x="0px"
   y="0px"
   version="1.1"
   id="svg2"
   sodipodi:docname="noun-mail-3083391.svg"
   width="481"
   height="324"
   inkscape:version="1.4.2 (ebf0e940d0, 2025-05-08)"
   xmlns:inkscape="http://www.inkscape.org/namespaces/inkscape"
   xmlns:sodipodi="http://sodipodi.sourceforge.net/DTD/sodipodi-0.dtd"
   xmlns="http://www.w3.org/2000/svg"
   xmlns:svg="http://www.w3.org/2000/svg">

	<rect width="100%" heigth="100%" fill="white" />

  <defs
     id="defs2" />

  <sodipodi:namedview
     id="namedview2"
     pagecolor="#ffffff"
     bordercolor="#000000"
     borderopacity="0.25"
     inkscape:showpageshadow="2"
     inkscape:pageopacity="0.0"
     inkscape:pagecheckerboard="0"
     inkscape:deskcolor="#d1d1d1"
     inkscape:zoom="1.25"
     inkscape:cx="240.4"
     inkscape:cy="225.6"
     inkscape:window-width="1920"
     inkscape:window-height="1011"
     inkscape:window-x="0"
     inkscape:window-y="0"
     inkscape:window-maximized="1"
     inkscape:current-layer="svg2" />
  <title
     id="title1">Artboard 18</title>
  <path
     d="M 481,12 A 12,12 0 0 0 469,0 H 12 A 12,12 0 0 0 0,12 v 300 a 12,12 0 0 0 12,12 h 457 a 12,12 0 0 0 12,-12 z M 241,190.023 38.91,24 H 443.09 Z M 151.226,147.923 24,283 V 43.4 Z m 19.068,15.367 63.089,51.781 a 12.018,12.018 0 0 0 15.234,-0.036 L 312.258,162.843 440.473,300 H 41.619 Z M 331.322,147.47 458,43.4 v 239.5 z"
     id="path1" />
</svg>
