<?xml version="1.0" encoding="UTF-8" standalone="no"?>
<svg
   version="1.1"
   viewBox="-5 -10 100.0044 85.5625"
   id="svg2"
   sodipodi:docname="noun-archive-7392500.svg"
   width="100.0044"
   height="85.5625"
   inkscape:version="1.4.2 (ebf0e940d0, 2025-05-08)"
   xmlns:inkscape="http://www.inkscape.org/namespaces/inkscape"
   xmlns:sodipodi="http://sodipodi.sourceforge.net/DTD/sodipodi-0.dtd"
   xmlns="http://www.w3.org/2000/svg"
   xmlns:svg="http://www.w3.org/2000/svg">
  <defs
     id="defs2" />
  <sodipodi:namedview
     id="namedview2"
     pagecolor="#ffffff"
     bordercolor="#000000"
     borderopacity="0.25"
     inkscape:showpageshadow="2"
     inkscape:pageopacity="0.0"
     inkscape:pagecheckerboard="0"
     inkscape:deskcolor="#d1d1d1"
     inkscape:zoom="5.9259259"
     inkscape:cx="49.865625"
     inkscape:cy="50.2875"
     inkscape:window-width="1920"
     inkscape:window-height="1011"
     inkscape:window-x="0"
     inkscape:window-y="0"
     inkscape:window-maximized="1"
     inkscape:current-layer="svg2" />
  <path
     d="M 3.9297,-10 C -0.9609,-10 -5,-5.9609 -5,-1.0703 v 13.289 c 0,3.5234 2.0938,6.6055 5.0977,8.0508 v 45.008 c 0,5.6562 4.6602,10.285 10.316,10.285 h 69.184 c 5.6562,0 10.309,-4.6289 10.309,-10.285 v -45.008 c 3.0039,-1.4453 5.0977,-4.5273 5.0977,-8.0508 V -1.0703 C 95.0044,-5.9609 90.9732,-10 86.0825,-10 Z m 0,6.25 h 82.148 c 1.5352,0 2.6719,1.1445 2.6719,2.6797 v 13.289 c 0,1.5352 -1.1367,2.6719 -2.6719,2.6719 H 3.9297 C 2.3945,14.8906 1.25,13.7539 1.25,12.2187 V -1.0703 C 1.25,-2.6055 2.3945,-3.75 3.9297,-3.75 Z m 2.4219,24.891 h 77.301 v 44.133 c 0,2.2773 -1.7812,4.0352 -4.0586,4.0352 H 10.41 c -2.2773,0 -4.0586,-1.7578 -4.0586,-4.0352 z m 25.812,10.148 v 0.0039 c -0.83203,-0.0039 -1.6328,0.32422 -2.2227,0.91406 -0.58984,0.58984 -0.91797,1.3906 -0.91406,2.2227 0,0.82812 0.33203,1.625 0.92188,2.2109 0.58984,0.58203 1.3867,0.91016 2.2148,0.90625 h 25.68 c 0.82812,0.0039 1.625,-0.32422 2.2148,-0.90625 0.58594,-0.58594 0.91797,-1.3828 0.92188,-2.2109 0,-0.83203 -0.32812,-1.6328 -0.91797,-2.2227 -0.58594,-0.58984 -1.3867,-0.91797 -2.2188,-0.91406 z"
     id="path1" />
</svg>
