<?xml version="1.0" encoding="UTF-8" standalone="no"?>
<svg
   version="1.1"
   x="0px"
   y="0px"
   viewBox="0 0 95 93.398438"
   xml:space="preserve"
   id="svg18"
   sodipodi:docname="noun-calendar-2080616.svg"
   width="95"
   height="93.398438"
   inkscape:version="1.4.2 (ebf0e940d0, 2025-05-08)"
   xmlns:inkscape="http://www.inkscape.org/namespaces/inkscape"
   xmlns:sodipodi="http://sodipodi.sourceforge.net/DTD/sodipodi-0.dtd"
   xmlns="http://www.w3.org/2000/svg"
   xmlns:svg="http://www.w3.org/2000/svg"><defs
     id="defs18" /><sodipodi:namedview
     id="namedview18"
     pagecolor="#ffffff"
     bordercolor="#000000"
     borderopacity="0.25"
     inkscape:showpageshadow="2"
     inkscape:pageopacity="0.0"
     inkscape:pagecheckerboard="0"
     inkscape:deskcolor="#d1d1d1"
     inkscape:zoom="6.4"
     inkscape:cx="47.265625"
     inkscape:cy="59.21875"
     inkscape:window-width="1920"
     inkscape:window-height="1011"
     inkscape:window-x="0"
     inkscape:window-y="0"
     inkscape:window-maximized="1"
     inkscape:current-layer="svg18" /><path
     id="path1"
     d="m 24.900391,0 c -4.3,0 -7.800781,3.4988282 -7.800781,7.7988278 V 11.298828 H 11.201172 C 5.0011718,11.298828 0,16.3 0,22.5 v 59.798828 c 0,6.1 5.0011719,11.09961 11.201172,11.09961 h 72.699219 c 6.1,0 11.099609,-4.99961 11.099609,-11.09961 l -0.09961,-51.662109 v -0.03711 -8.09961 c 0,-6.2 -4.999609,-11.201172 -11.099609,-11.201172 H 77.900391 V 7.7988268 C 77.900391,3.4988272 74.39961,-9e-7 70.09961,-10e-7 c -4.3,0 -7.798828,3.4988282 -7.798828,7.7988278 V 11.298827 H 32.701172 V 7.7988268 C 32.701172,3.4988282 29.200391,1e-7 24.900391,0 Z m -0.09961,4.6992188 c 1.7,0 3.099609,1.3996094 3.099609,3.099609 v 7.4003912 c 0,1.7 -1.399609,3.099609 -3.099609,3.099609 -1.7,0 -3.09961,-1.399609 -3.09961,-3.099609 V 7.7988278 c 0,-1.6999996 1.39961,-3.099609 3.09961,-3.099609 z m 45.199218,0 c 1.7,0 3.09961,1.3996094 3.09961,3.099609 v 7.4003912 c 0,1.7 -1.39961,3.099609 -3.09961,3.099609 -1.7,0 -3.099609,-1.399609 -3.099609,-3.099609 V 7.7988278 C 66.900391,6.0988282 68.3,4.6992188 70,4.6992188 Z M 11.09961,16 h 6 c 0.4,3.9 3.700781,7 7.800781,7 4,0 7.299219,-3.1 7.699219,-7 H 62.300782 C 62.700782,19.9 66,23 70,23 c 4,0 7.301172,-3.1 7.701172,-7 h 6 c 3.5,0 6.398438,2.9 6.398438,6.5 v 5.798828 H 4.5996094 V 22.5 c 0,-3.6 2.9000002,-6.5 6.5000006,-6.5 z M 4.5996094,32.898438 H 90.201172 v 49.40039 c 0,3.5 -2.90039,6.400391 -6.40039,6.400391 H 11.09961 c -3.6000004,0 -6.5000007,-2.900391 -6.5000006,-6.400391 z M 18,42.298828 c -2,0 -3.599609,1.59961 -3.599609,3.59961 v 0.40039 c 0,2 1.599609,3.59961 3.599609,3.59961 h 0.300782 c 2,0 3.599609,-1.59961 3.599609,-3.59961 v -0.40039 c 0,-2 -1.599609,-3.59961 -3.599609,-3.59961 z m 14.59961,0 c -2,0 -3.59961,1.59961 -3.59961,3.59961 v 0.40039 c 0,2 1.59961,3.59961 3.59961,3.59961 h 0.300781 c 2,0 3.599609,-1.59961 3.599609,-3.59961 v -0.40039 c 0,-2 -1.599609,-3.59961 -3.599609,-3.59961 z m 14.601562,0 c -2,0 -3.601562,1.59961 -3.601562,3.59961 v 0.40039 c 0,2 1.601562,3.59961 3.601562,3.59961 h 0.398438 c 2,0 3.601562,-1.59961 3.601562,-3.59961 v -0.40039 c 0,-2 -1.601562,-3.59961 -3.601562,-3.59961 z m 14.59961,0 c -2,0 -3.59961,1.59961 -3.59961,3.59961 v 0.40039 c 0,2 1.59961,3.59961 3.59961,3.59961 h 0.40039 c 2,0 3.59961,-1.59961 3.59961,-3.59961 v -0.40039 c 0.1,-2 -1.59961,-3.59961 -3.59961,-3.59961 z m 14.699218,0 c -2,0 -3.599609,1.59961 -3.599609,3.59961 v 0.40039 c 0,2 1.599609,3.59961 3.599609,3.59961 h 0.400391 c 2,0 3.599609,-1.59961 3.599609,-3.59961 v -0.40039 c 0,-2 -1.599609,-3.59961 -3.599609,-3.59961 z M 18,57.09961 c -2,0 -3.599609,1.599609 -3.599609,3.599609 v 0.400391 c 0,2 1.599609,3.599609 3.599609,3.599609 h 0.300782 c 2,0 3.599609,-1.599609 3.599609,-3.599609 v -0.400391 c 0,-2 -1.599609,-3.599609 -3.599609,-3.599609 z m 14.59961,0 c -2,0 -3.59961,1.599609 -3.59961,3.599609 v 0.400391 c 0,2 1.59961,3.599609 3.59961,3.599609 h 0.300781 c 2,0 3.599609,-1.599609 3.599609,-3.599609 v -0.400391 c 0,-2 -1.599609,-3.599609 -3.599609,-3.599609 z m 14.601562,0 c -2,0 -3.601562,1.599609 -3.601562,3.599609 v 0.400391 c 0,2 1.601562,3.599609 3.601562,3.599609 h 0.398438 c 2,0 3.601562,-1.599609 3.601562,-3.599609 v -0.400391 c 0,-2 -1.601562,-3.599609 -3.601562,-3.599609 z m 14.59961,0 c -2,0 -3.59961,1.599609 -3.59961,3.599609 v 0.400391 c 0,2 1.59961,3.599609 3.59961,3.599609 h 0.40039 c 2,0 3.59961,-1.599609 3.59961,-3.599609 v -0.400391 c 0.1,-2 -1.59961,-3.599609 -3.59961,-3.599609 z m 14.699218,0 c -2,0 -3.599609,1.599609 -3.599609,3.599609 v 0.400391 c 0,2 1.599609,3.599609 3.599609,3.599609 h 0.400391 c 2,0 3.599609,-1.599609 3.599609,-3.599609 v -0.400391 c 0,-2 -1.599609,-3.599609 -3.599609,-3.599609 z M 18,71.798828 c -2,0 -3.599609,1.59961 -3.599609,3.59961 v 0.40039 c 0,2 1.599609,3.59961 3.599609,3.59961 h 0.300782 c 2,0 3.599609,-1.59961 3.599609,-3.59961 v -0.40039 c 0,-1.9 -1.599609,-3.59961 -3.599609,-3.59961 z m 14.59961,0 c -2,0 -3.59961,1.59961 -3.59961,3.59961 v 0.40039 c 0,2 1.59961,3.59961 3.59961,3.59961 h 0.300781 c 2,0 3.599609,-1.59961 3.599609,-3.59961 v -0.40039 c 0,-1.9 -1.599609,-3.59961 -3.599609,-3.59961 z m 14.601562,0 c -2,0 -3.601562,1.59961 -3.601562,3.59961 v 0.40039 c 0,2 1.601562,3.59961 3.601562,3.59961 h 0.398438 c 2,0 3.601562,-1.59961 3.601562,-3.59961 v -0.40039 c 0,-1.9 -1.601562,-3.59961 -3.601562,-3.59961 z m 14.59961,0 c -2,0 -3.59961,1.59961 -3.59961,3.59961 v 0.40039 c 0,2 1.59961,3.59961 3.59961,3.59961 h 0.40039 c 2,0 3.59961,-1.59961 3.59961,-3.59961 v -0.40039 c 0.1,-1.9 -1.59961,-3.59961 -3.59961,-3.59961 z m 14.699218,0 c -2,0 -3.599609,1.59961 -3.599609,3.59961 v 0.40039 c 0,2 1.599609,3.59961 3.599609,3.59961 h 0.400391 c 2,0 3.599609,-1.59961 3.599609,-3.59961 v -0.40039 c 0,-1.9 -1.599609,-3.59961 -3.599609,-3.59961 z" /></svg>
