<?xml version="1.0" encoding="UTF-8" standalone="no"?>
<svg
   version="1.1"
   viewBox="-5 -10 74.995438 69.080902"
   id="svg2"
   sodipodi:docname="noun-draft-8101983.svg"
   width="74.995438"
   height="69.080902"
   inkscape:version="1.4.2 (ebf0e940d0, 2025-05-08)"
   xmlns:inkscape="http://www.inkscape.org/namespaces/inkscape"
   xmlns:sodipodi="http://sodipodi.sourceforge.net/DTD/sodipodi-0.dtd"
   xmlns="http://www.w3.org/2000/svg"
   xmlns:svg="http://www.w3.org/2000/svg">
  <defs
     id="defs2" />
  <sodipodi:namedview
     id="namedview2"
     pagecolor="#ffffff"
     bordercolor="#000000"
     borderopacity="0.25"
     inkscape:showpageshadow="2"
     inkscape:pageopacity="0.0"
     inkscape:pagecheckerboard="0"
     inkscape:deskcolor="#d1d1d1"
     inkscape:zoom="5.9259259"
     inkscape:cx="37.378125"
     inkscape:cy="42.01875"
     inkscape:window-width="1920"
     inkscape:window-height="1011"
     inkscape:window-x="0"
     inkscape:window-y="0"
     inkscape:window-maximized="1"
     inkscape:current-layer="svg2" />
  <path
     d="m 69.906,-1.9388597 c -0.35156,-2.543 -1.6758,-4.7695 -3.7266,-6.2695 -2.0508,-1.5 -4.5742,-2.0859003 -7.1055,-1.6523 -2.5039,0.42969 -4.7148,1.8047 -6.2344,3.8789 L 19.9415,38.98324 c -0.21484,0.29297 -0.36328,0.63281 -0.43359,0.99219 l -3.1836,16.125 c -0.1875,0.95312 0.19141,1.9297 0.97656,2.5 0.4375,0.32031 0.95703,0.48047 1.4766,0.48047 0.41406,0 0.82812,-0.10156 1.2031,-0.30859 l 14.402,-7.9141 c 0.32031,-0.17578 0.59766,-0.41797 0.8125,-0.71484 l 32.898,-44.9649997 c 1.5156,-2.0742 2.1602,-4.60159995 1.8086,-7.1172 z M 31.492,46.74114 l -9.2227,5.0703 2.0391,-10.328 28.297,-38.6799997 7.1875,5.2578 z m 32.57,-44.5199997 -1.3164,1.8008 -7.1875,-5.2578 1.3203,-1.8008 c 0.74609,-1.0195 1.8242,-1.6953 3.0391,-1.9023 1.1875,-0.19922 2.3633,0.06641 3.3086,0.76172 0.94531,0.69141 1.5586,1.7305 1.7266,2.9258 0.16797,1.22270005 -0.14844,2.4531 -0.89062,3.4727 z M -5,-5.5249597 c 0,-1.3789 1.1172,-2.5 2.5,-2.5 h 46.066 c 1.3789,0 2.5,1.1172 2.5,2.5 0,1.3789 -1.1172,2.5 -2.5,2.5 H -2.5 c -1.3789,0 -2.5,-1.1172 -2.5,-2.5 z m 0,12.961 c 0,-1.3789 1.1172,-2.5 2.5,-2.5 h 35.844 c 1.3789,0 2.5,1.1172 2.5,2.5 0,1.3789 -1.1172,2.5 -2.5,2.5 H -2.5 c -1.3789,0 -2.5,-1.1172 -2.5,-2.5 z M -5,20.39704 c 0,-1.3789 1.1172,-2.5 2.5,-2.5 h 27.148 c 1.3789,0 2.5,1.1172 2.5,2.5 0,1.3789 -1.1172,2.5 -2.5,2.5 H -2.5 c -1.3789,0 -2.5,-1.1172 -2.5,-2.5 z m 20.09,15.461 H -2.5 c -1.3789,0 -2.5,-1.1172 -2.5,-2.5 0,-1.3789 1.1172,-2.5 2.5,-2.5 h 17.59 c 1.3789,0 2.5,1.1172 2.5,2.5 0,1.3789 -1.1172,2.5 -2.5,2.5 z"
     id="path1" />
</svg>
