<?xml version="1.0" encoding="UTF-8" standalone="no"?>
<svg
   version="1.1"
   viewBox="-5 -10 84.738098 84.7342"
   id="svg2"
   sodipodi:docname="noun-log-out-7385374.svg"
   width="84.738098"
   height="84.7342"
   inkscape:version="1.4.2 (ebf0e940d0, 2025-05-08)"
   xmlns:inkscape="http://www.inkscape.org/namespaces/inkscape"
   xmlns:sodipodi="http://sodipodi.sourceforge.net/DTD/sodipodi-0.dtd"
   xmlns="http://www.w3.org/2000/svg"
   xmlns:svg="http://www.w3.org/2000/svg">
  <defs
     id="defs2" />
  <sodipodi:namedview
     id="namedview2"
     pagecolor="#ffffff"
     bordercolor="#000000"
     borderopacity="0.25"
     inkscape:showpageshadow="2"
     inkscape:pageopacity="0.0"
     inkscape:pagecheckerboard="0"
     inkscape:deskcolor="#d1d1d1"
     inkscape:zoom="5.9259259"
     inkscape:cx="42.271875"
     inkscape:cy="49.95"
     inkscape:window-width="1920"
     inkscape:window-height="1011"
     inkscape:window-x="0"
     inkscape:window-y="0"
     inkscape:window-maximized="1"
     inkscape:current-layer="svg2" />
  <path
     d="m 34.3752,52.1526 v 14.648 c 0,4.375 -3.5586,7.9336 -7.9336,7.9336 H 2.9336 C -1.4414,74.7342 -5,71.1756 -5,66.8006 V -2.0664 C -5,-6.4414 -1.4414,-10 2.9336,-10 h 23.512 c 4.375,0 7.9336,3.5586 7.9336,7.9336 v 14.648 c 0,1.6328 -1.3242,2.957 -2.957,2.957 -1.6328,0 -2.957,-1.3242 -2.957,-2.957 v -14.648 c 0,-1.0938 -0.92578,-2.0195 -2.0195,-2.0195 H 2.9337 c -1.0938,0 -2.0195,0.92578 -2.0195,2.0195 v 68.867 c 0,1.0938 0.92578,2.0195 2.0195,2.0195 h 23.512 c 1.0938,0 2.0195,-0.92578 2.0195,-2.0195 v -14.648 c 0,-1.6328 1.3242,-2.957 2.957,-2.957 1.6328,0 2.957,1.3242 2.957,2.957 z m 45.359,-19.785 c 0,1.5117 -0.65234,2.8594 -1.832,3.8008 l -20.695,16.469 c -0.88281,0.70312 -1.9414,1.0625 -3.0156,1.0625 -0.71875,0 -1.4375,-0.16016 -2.1172,-0.48828 -1.6953,-0.81641 -2.7461,-2.4922 -2.7461,-4.375 v -5.4375 h -31.082 c -2.6914,0 -4.8828,-2.1914 -4.8828,-4.8828 v -12.297 c 0,-2.6914 2.1914,-4.8828 4.8828,-4.8828 h 31.082 v -5.4375 c 0,-1.8828 1.0547,-3.5586 2.7461,-4.375 1.6953,-0.81641 3.6641,-0.59766 5.1367,0.57422 l 20.695,16.469 c 1.1836,0.94141 1.832,2.2891 1.832,3.8008 z m -6.5508,0 -17.945,-14.281 v 6.2031 c 0,1.6328 -1.3242,2.957 -2.957,2.957 h -33.008 v 10.242 h 33.008 c 1.6328,0 2.957,1.3242 2.957,2.957 v 6.207 l 17.945,-14.281 z"
     id="path1" />
</svg>
