<?xml version="1.0" encoding="UTF-8" standalone="no"?>
<svg
   version="1.1"
   x="0px"
   y="0px"
   viewBox="0 0 86.472656 68.138672"
   enable-background="new 0 0 100 100"
   xml:space="preserve"
   id="svg4"
   sodipodi:docname="noun-mail-alert-449552.svg"
   width="86.472656"
   height="68.138672"
   inkscape:version="1.4.2 (ebf0e940d0, 2025-05-08)"
   xmlns:inkscape="http://www.inkscape.org/namespaces/inkscape"
   xmlns:sodipodi="http://sodipodi.sourceforge.net/DTD/sodipodi-0.dtd"
   xmlns="http://www.w3.org/2000/svg"
   xmlns:svg="http://www.w3.org/2000/svg"><defs
     id="defs4" /><sodipodi:namedview
     id="namedview4"
     pagecolor="#ffffff"
     bordercolor="#000000"
     borderopacity="0.25"
     inkscape:showpageshadow="2"
     inkscape:pageopacity="0.0"
     inkscape:pagecheckerboard="0"
     inkscape:deskcolor="#d1d1d1"
     inkscape:zoom="6.4"
     inkscape:cx="39.609375"
     inkscape:cy="41.5625"
     inkscape:window-width="1920"
     inkscape:window-height="1011"
     inkscape:window-x="0"
     inkscape:window-y="0"
     inkscape:window-maximized="1"
     inkscape:current-layer="svg4" /><path
     id="path1"
     d="m 0,0 v 55.99414 h 41.675781 c -0.783,-1.895 -1.339719,-3.905 -1.636719,-6 H 6 V 9.279297 L 36.998047,31.792968 68,9.279297 v 12.384765 c 2.093,0.269 4.103953,0.796781 6.001953,1.550781 V 0 Z M 11.554687,5.998047 H 62.441406 L 36.996094,24.199218 Z m 53.230469,18.767578 c -11.976,0 -21.6875,9.708546 -21.6875,21.685546 0,11.977001 9.7115,21.6875 21.6875,21.6875 11.978,0 21.6875,-9.710499 21.6875,-21.6875 -0.002,-11.975999 -9.7115,-21.685546 -21.6875,-21.685546 z m -3.736328,8.52539 h 7.761719 l -2.001953,15.998047 h -3.757813 z m 2.003906,18.919922 h 3.757813 l 1,5.119141 h -5.759766 z" /></svg>
