<?xml version="1.0" encoding="UTF-8" standalone="no"?>
<svg
   viewBox="0 0 30 30"
   x="0px"
   y="0px"
   version="1.1"
   id="svg2"
   sodipodi:docname="noun-note-3248069.svg"
   width="30"
   height="30"
   inkscape:version="1.4.2 (ebf0e940d0, 2025-05-08)"
   xmlns:inkscape="http://www.inkscape.org/namespaces/inkscape"
   xmlns:sodipodi="http://sodipodi.sourceforge.net/DTD/sodipodi-0.dtd"
   xmlns="http://www.w3.org/2000/svg"
   xmlns:svg="http://www.w3.org/2000/svg">
  <defs
     id="defs2" />
  <sodipodi:namedview
     id="namedview2"
     pagecolor="#ffffff"
     bordercolor="#000000"
     borderopacity="0.25"
     inkscape:showpageshadow="2"
     inkscape:pageopacity="0.0"
     inkscape:pagecheckerboard="0"
     inkscape:deskcolor="#d1d1d1"
     inkscape:zoom="20"
     inkscape:cx="14.975"
     inkscape:cy="19"
     inkscape:window-width="1920"
     inkscape:window-height="1011"
     inkscape:window-x="0"
     inkscape:window-y="0"
     inkscape:window-maximized="1"
     inkscape:current-layer="svg2" />
  <title
     id="title1">note</title>
  <path
     d="m 29.9342,20.3257 a 0.984,0.984 0 0 0 0.0533,-0.2639 C 29.989,20.04 30,20.0219 30,20 V 1 A 1,1 0 0 0 29,0 H 1 A 1,1 0 0 0 0,1 v 28 a 1,1 0 0 0 1,1 h 19 a 1.01,1.01 0 0 0 0.7077,-0.2936 l 8.9985,-8.9985 0.0034,-0.0043 a 0.9883,0.9883 0 0 0 0.191,-0.2833 0.9632,0.9632 0 0 0 0.0336,-0.0946 z M 19,20 v 8 H 2 V 2 h 26 v 17 h -8 a 1,1 0 0 0 -1,1 z m 2,6.5859 V 21 h 5.5859 z"
     id="path1" />
</svg>
