<?xml version="1.0" encoding="UTF-8" standalone="no"?>
<svg
   version="1.1"
   viewBox="-5 -10 94.050751 90.106842"
   id="svg2"
   sodipodi:docname="noun-star-8040473.svg"
   width="94.050751"
   height="90.106842"
   inkscape:version="1.4.2 (ebf0e940d0, 2025-05-08)"
   xmlns:inkscape="http://www.inkscape.org/namespaces/inkscape"
   xmlns:sodipodi="http://sodipodi.sourceforge.net/DTD/sodipodi-0.dtd"
   xmlns="http://www.w3.org/2000/svg"
   xmlns:svg="http://www.w3.org/2000/svg">
  <defs
     id="defs2" />
  <sodipodi:namedview
     id="namedview2"
     pagecolor="#ffffff"
     bordercolor="#000000"
     borderopacity="0.25"
     inkscape:showpageshadow="2"
     inkscape:pageopacity="0.0"
     inkscape:pagecheckerboard="0"
     inkscape:deskcolor="#d1d1d1"
     inkscape:zoom="5.9259259"
     inkscape:cx="46.996875"
     inkscape:cy="52.48125"
     inkscape:window-width="1920"
     inkscape:window-height="1011"
     inkscape:window-x="0"
     inkscape:window-y="0"
     inkscape:window-maximized="1"
     inkscape:current-layer="svg2" />
  <path
     d="m 47.907611,-6.2440294 10.625,22.6170004 24.812,3.1211 c 5.5195,0.69141 7.6289,7.4727 3.6523,11.199 l -18.242,17.109 4.7031,24.566 c 1.0391,5.4258 -4.7305,9.5586 -9.5234,6.9219 l -21.91,-12.062 -21.91,12.062 c -1.0938,0.60156 -2.3594,0.89062 -3.5391,0.80078 -3.832,-0.23828 -6.7344004,-3.7852 -5.9805,-7.7227 l 4.7031,-24.566 -18.2460004,-17.109 c -3.9727,-3.7266 -1.8672,-10.508 3.65230004,-11.199 l 24.81200036,-3.1172 10.625,-22.6210004 c 2.3516,-5.0038996 9.4062,-5.0116996 11.766,0 z m 4.6016,27.7850004 -10.484,-22.31600043 -10.348,22.02700043 c -0.48438,1.3047 -1.6602,2.2969 -3.1367,2.4766 l -24.4380004,3.0703 17.8630004,16.758 c 0.99609,0.86719 1.5195,2.2266 1.2539,3.6172 l -4.6328,24.207 21.543,-11.859 c 1.1172,-0.63672 2.5312,-0.69141 3.7383,-0.02734 l 21.594,11.887 -4.6328,-24.207 h 0.0039 c -0.23828,-1.2422 0.14844,-2.5781 1.1367,-3.5078 l 17.977,-16.859 -24.438,-3.0703 0.0039,-0.01172 c -1.2656,-0.16406 -2.4258,-0.94531 -3.0039,-2.1836 z"
     fill-rule="evenodd"
     id="path1" />
</svg>
