<?xml version="1.0" encoding="UTF-8" standalone="no"?>
<svg
   version="1.1"
   viewBox="-5 -10 87.139069 87.794456"
   id="svg2"
   sodipodi:docname="noun-tag-8360542.svg"
   width="87.139069"
   height="87.794456"
   inkscape:version="1.4.2 (ebf0e940d0, 2025-05-08)"
   xmlns:inkscape="http://www.inkscape.org/namespaces/inkscape"
   xmlns:sodipodi="http://sodipodi.sourceforge.net/DTD/sodipodi-0.dtd"
   xmlns="http://www.w3.org/2000/svg"
   xmlns:svg="http://www.w3.org/2000/svg">
  <defs
     id="defs2" />
  <sodipodi:namedview
     id="namedview2"
     pagecolor="#ffffff"
     bordercolor="#000000"
     borderopacity="0.25"
     inkscape:showpageshadow="2"
     inkscape:pageopacity="0.0"
     inkscape:pagecheckerboard="0"
     inkscape:deskcolor="#d1d1d1"
     inkscape:zoom="5.9259259"
     inkscape:cx="43.453125"
     inkscape:cy="51.46875"
     inkscape:window-width="1920"
     inkscape:window-height="1011"
     inkscape:window-x="0"
     inkscape:window-y="0"
     inkscape:window-maximized="1"
     inkscape:current-layer="svg2" />
  <path
     d="m 21.191712,73.746333 c 5.332,5.3008 13.562,5.4414 18.863,0.15234 12.73,-12.707 25.379,-25.5 38.004,-38.312 2.7461,-2.7852 4.1445,-6.2109 4.0781,-10.207 -0.13281,-7.9609 -0.25,-15.9140002 -0.48828,-23.8710002 -0.21094,-6.8789 -5.0156,-11.492 -11.836,-11.504 -7.6406,-0.00781 -15.285,-0.00781 -22.922,0.015625 -3.1055,0.00781 -5.8242,1.0859 -8.0625,3.2422 -2.1406,2.0625 -4.2227,4.1836 -6.332,6.27730002 -11.141,11.07000018 -22.316,22.10900018 -33.41400022,33.21900018 -5.44919998,5.4531 -5.42579998,13.336 -0.03125,18.785 7.35160002,7.4297 14.73000022,14.832 22.14100022,22.203 z m -16.6020002,-35.832 c 0.0078,-0.0078 0.01172,-0.01563 0.01953,-0.02344 5.5312002,-6.2383 11.8710002,-11.812 17.7700002,-17.707 5.6523,-5.6484 11.332,-11.2770002 16.969,-16.9410002 2.1211,-2.1289 3.7656,-4.8359 6.8672,-5.6914 1.207,-0.33203 2.4766,-0.33203 3.7266,-0.32422 6.5273,0.02734 13.051,0.05469 19.578,0.08203 1.2109,0.0039 2.5391,0.05469 3.4336,0.86719 0.97656,0.88281002 1.0898,2.34770002 1.1367,3.6641 0.25781,6.9883 0.51953,13.9770002 0.77734,20.9650002 0.0625,1.6875 0.11719,3.4336 -0.50391,5.0039 -0.60938,1.543 -1.8086,2.7695 -2.9766,3.9453 -11.73,11.84 -23.465,23.68 -35.195,35.52 -1.5234,1.5391 -3.2773,3.1797 -5.4453,3.2266 -2.375,0.05078 -4.1562,-1.7461 -5.7188,-3.293 -2.1992,-2.1758 -4.3867,-4.3672 -6.5742,-6.5547 -4.4648,-4.4727 -8.9102002,-8.9648 -13.3360002,-13.477 -1.0312,-1.0547 -2.1055,-2.1797 -2.4609,-3.6094 -0.5,-2.0117 0.55859,-4.0977 1.9336,-5.6523 z m 54.2030002,-14.336 c 5.7305,0.01953 10.105,-4.1914 10.152,-9.7812 0.04297,-5.4141002 -4.5703,-10.0120002 -10.047,-10.0120002 -5.5078,-0.0039 -9.9102,4.3594 -9.957,9.8594002 -0.04297,5.4922 4.3438,9.9141 9.8516,9.9336 z m 0.03125,-12.555 c 1.5781,-0.04297 2.8516,1.1953 2.8438,2.7656 -0.0078,1.4805 -1.2227,2.6953 -2.7266,2.7227 -1.5391,0.03125 -2.7852,-1.1172 -2.8203,-2.5938 -0.04297,-1.6445 1.0859,-2.8516 2.7031,-2.8945 z"
     id="path1" />
</svg>
